<svg version="1.1" xmlns="http://www.w3.org/2000/svg" xmlns:xlink="http://www.w3.org/1999/xlink" width="260" height="260" viewBox="0,0,260,260"><g transform="translate(-190,-50)"><g data-paper-data="{&quot;isPaintingLayer&quot;:true}" fill-rule="nonzero" stroke-linecap="butt" stroke-linejoin="miter" stroke-miterlimit="10" stroke-dasharray="" stroke-dashoffset="0" style="mix-blend-mode: normal"><path d="M190,180c0,-71.79701 58.20299,-130 130,-130c71.79701,0 130,58.20299 130,130c0,71.79701 -58.20299,130 -130,130c-71.79701,0 -130,-58.20299 -130,-130z" fill="#ffffff" stroke="#000000" stroke-width="0"/><g stroke="none"><path d="M388.12634,187.27952c13.0016,6.86743 20.621,22.72276 20.621,22.72276c0,0 -12.60895,-5.22054 -25.76165,-7.24676c-7.96113,-1.22644 -16.12147,-0.45383 -21.80545,0.98788c-5.43709,1.65912 -4.3359,31.41643 -4.3359,31.41643c0,0 -30.40475,-25.08087 -37.00751,-25.08087c-4.62222,0 -21.26772,3.81488 -34.98595,10.01398c-13.65788,6.17184 -24.39889,14.728 -24.39889,14.728c0,0 14.22676,-32.42668 8.99015,-34.69014c-34.04982,-1.99727 -67.71433,4.398 -67.71433,4.398c0,0 33.63704,-23.33879 48.85212,-25.55041c0.467,-0.06788 -25.90442,-11.45878 -25.90442,-11.45878c0,0 15.45178,-5.9 37.71913,-6.1077c-9.49133,-6.25077 -25.65177,-38.02551 -25.65177,-38.02551c0,0 48.75618,25.04165 66.00375,26.50944c5.9459,-7.18881 23.66523,-15.48689 23.66523,-15.48689c0,0 18.21747,15.02077 21.59719,15.75425c45.81237,-13.34701 71.91242,-13.18885 71.91242,-13.18885c0,0 -35.65935,22.94789 -35.45249,28.56038c32.15036,-1.1437 59.56903,13.45777 59.56903,13.45777c0,0 -52.92101,2.00509 -55.91166,8.28703z" fill="#000000" stroke-width="0"/><path d="M380.39766,185.53555c-0.7124,0.97065 4.49016,3.39134 9.52959,7.07832c4.98648,3.64823 9.81321,8.56362 8.59173,9.4179c-2.05723,1.43879 -10.98264,-3.67697 -18.66372,-4.59394c-9.08951,-1.0851 -19.10758,0.449 -22.93252,1.61618c-5.34982,1.63249 -0.64089,21.45965 -6.87162,22.34555c-6.13507,0.8723 -23.2003,-17.18414 -29.69708,-17.18414c-9.07607,0 -37.32917,13.84596 -45.35285,12.20063c-6.61795,-1.35707 6.7288,-17.97453 1.57623,-20.20165c-1.69625,-0.73318 -10.06803,-2.09614 -19.59444,-1.79576c-16.00808,0.50476 -31.95857,2.40409 -32.41573,2.55917c-3.88089,-3.30513 34.61254,-14.46353 34.61254,-18.35891c0,-1.50959 -7.57598,-5.21716 -13.93355,-7.29042c-4.90152,-1.59844 -9.13408,-2.16257 -8.27006,-3.2172c0.77588,-0.94707 6.9337,-2.23616 13.68112,-2.49195c8.06582,-0.30577 16.97419,0.45591 18.53887,-0.53131c1.43528,-0.90558 -3.33422,-5.0717 -7.54573,-10.23156c-6.93515,-8.49681 -14.06572,-18.13186 -11.24463,-17.98438c2.1062,0.01689 14.61103,6.04555 28.66445,11.24393c10.48062,3.87679 21.94195,6.32276 25.18286,5.9089c2.90117,-0.37048 11.68454,-12.05858 21.65269,-11.65904c7.59457,0.30439 16.60848,12.54099 19.93396,13.26269c2.97591,0.64585 5.90147,-3.55153 22.9589,-7.20856c12.33952,-3.48968 24.79117,-5.57733 27.57988,-4.4389c2.5086,1.02408 -1.73511,4.97979 -7.8241,10.08298c-7.01985,5.88337 -13.40864,13.02285 -11.5767,14.54434c0.94425,0.78423 11.29279,0.14082 21.6704,1.12375c10.21063,0.96711 20.45806,3.55214 20.74822,5.34357c0.28856,1.78162 -10.55306,0.88524 -20.37742,2.93809c-9.62337,2.01085 -18.22654,6.98391 -18.62127,7.52175z" fill="#ffca1a" stroke-width="0"/><path d="M364.63667,171.80257c-1.16197,0.49798 -2.58378,-0.77377 -2.58378,-0.77377c-0.77792,-0.87476 -4.53466,-1.1624 -6.80853,1.40366c-3.08494,3.48135 -4.31624,10.51507 -5.05746,12.61502c-0.22768,0.64503 -0.76546,1.10165 -1.31327,1.08414c-0.75865,-0.02425 -1.53651,-0.69678 -1.53651,-0.69678l0.01227,-0.00274l-0.01917,-0.03039c-0.62358,-3.73604 -0.74796,-7.29714 -0.7456,-11.07697c0.00024,-0.38276 -0.01871,-0.80646 -0.02822,-1.24342c-2.23099,4.3407 -3.85286,9.44255 -9.16796,9.44255c-0.62646,0 -2.93242,-0.58953 -3.80837,-1.99698c-1.0773,-1.73098 -0.69135,-4.40757 -0.86727,-5.20047c-0.76995,1.34911 -5.01413,8.54862 -8.17507,10.23066c-3.18552,1.69512 -5.2851,-2.14235 -5.31738,-4.73083c0.01034,-2.8621 0.83513,-6.64105 2.26922,-9.87719c-2.46754,0.31473 -5.04468,1.13901 -7.33727,1.71076c-1.27819,0.31876 -2.57775,0.56576 -3.88932,0.75567c-0.72303,3.64039 -1.52653,7.24946 -2.5662,10.75073c-0.21091,1.05408 -0.62298,2.5263 -0.10403,3.47236c0.49209,0.89708 1.91146,1.2965 1.91146,1.2965c0,0 2.23933,0.24379 2.23933,1.50798c0,0.69508 -0.60832,1.30656 -1.44868,1.42361c-0.32131,0.04475 -3.55574,0.3423 -4.75803,-1.11616c-1.3723,-1.66469 -0.68767,-5.22343 -0.29327,-7.19615c0.97019,-3.19851 1.7285,-6.49811 2.40267,-9.83258c-0.31278,0.02856 -1.27596,0.05445 -1.58924,0.07791c-1.59855,3.01971 -7.11146,8.90322 -13.01299,13.1175c-5.03764,3.59737 -6.00094,3.76611 -10.05094,5.81221c-0.77208,0.39007 -2.02169,-0.16332 -2.29593,-1.3974c-0.27425,-1.23408 0.39166,-1.67238 1.30989,-2.20842c0.91823,-0.53604 6.85153,-2.45488 7.50363,-2.93673c3.17132,-2.3434 -0.95924,-7.20596 -1.59376,-9.63799c-0.96241,-3.68879 -0.32588,-6.7349 1.25919,-9.90504c0,0 1.45021,-1.38354 2.58093,-0.81817c1.13072,0.56536 1.32381,2.32811 1.32381,2.32811c-1.26183,2.52367 -3.52304,4.73392 -2.73206,7.70329c0.60457,2.26958 2.32699,5.11494 2.76365,7.52826c3.53136,-2.96938 8.03744,-5.80677 10.56329,-9.42873c-0.99825,0.03081 -1.99447,0.53064 -2.98464,0.53064c0,0 -1.58923,-0.65009 -1.58923,-1.91427c0,-1.26418 1.75176,-1.58923 1.75176,-1.58923c1.56136,0 6.77147,0.20798 7.29973,0.15213c0.84825,-4.44251 1.11884,-8.91636 2.08539,-13.26688c0,0 0.76181,-1.88418 1.99589,-1.60994c1.23408,0.27425 1.28488,2.32094 1.28488,2.32094c-0.90322,4.06345 -1.95946,8.05935 -2.74596,12.20113c0.92623,-0.15521 1.84461,-0.34331 2.7513,-0.57054c1.72826,-0.43314 5.39345,-1.23779 7.94516,-2.22182c1.8491,-0.71309 2.91704,-1.66771 3.18526,-1.9341c2.18761,-2.17263 6.00727,-2.93338 8.37194,-0.70748c0.58889,0.55433 1.84851,2.46947 2.0117,4.63324c0.14515,1.92479 -0.68866,6.89955 0.34227,8.9009c0.97293,1.88877 3.80576,0.86799 4.18816,0.66918c3.11315,-1.61848 7.96411,-12.70249 8.42399,-12.70249c0.63453,0 1.1599,0.4675 1.25041,1.07685c0,0 0.0469,2.29504 0.10008,5.03829c0.05217,2.69083 -0.11716,5.69913 -0.09126,7.50947c0.26935,-0.58646 1.73432,-5.32695 2.67015,-7.18405c2.22267,-4.41074 8.48314,-7.9681 12.55009,-4.17401c0,0 1.32589,2.19001 0.16392,2.688zM326.31353,167.74432c-0.5463,0.55162 -1.05664,1.2272 -1.52444,1.98656c-0.05854,0.32566 -0.21592,0.54272 -0.3997,0.68738c-1.71982,3.12985 -2.76714,7.34845 -2.75445,10.29423c-0.03334,1.9733 0.5271,2.53134 1.37621,2.36626c0.78311,-0.15225 1.81176,-0.91958 2.84661,-1.75907c2.86135,-2.32118 5.26843,-7.06176 5.66009,-10.70289c0,0 0.47581,-3.39183 -0.31675,-4.26103c-1.08882,-1.19408 -3.66296,0.15203 -4.88756,1.38857z" fill="#fffbfb" stroke-width="0.5"/><path d="M364.36417,174.25499c-1.16197,0.49798 -2.58378,-0.77377 -2.58378,-0.77377c-0.77792,-0.87476 -4.53466,-1.1624 -6.80853,1.40366c-3.08494,3.48135 -4.31624,10.51507 -5.05746,12.61502c-0.22768,0.64503 -0.76546,1.10165 -1.31327,1.08414c-0.75865,-0.02425 -1.53651,-0.69678 -1.53651,-0.69678l0.01227,-0.00274l-0.01917,-0.03039c-0.62358,-3.73604 -0.74796,-7.29714 -0.7456,-11.07697c0.00024,-0.38276 -0.01871,-0.80646 -0.02822,-1.24342c-2.23099,4.3407 -3.85286,9.44255 -9.16796,9.44255c-0.62646,0 -2.93242,-0.58953 -3.80837,-1.99698c-1.0773,-1.73098 -0.69135,-4.40757 -0.86727,-5.20047c-0.76995,1.34911 -5.01413,8.54862 -8.17507,10.23066c-3.18552,1.69512 -5.2851,-2.14235 -5.31738,-4.73083c0.01034,-2.8621 0.83513,-6.64105 2.26922,-9.87719c-2.46754,0.31473 -5.04468,1.13901 -7.33727,1.71076c-1.27819,0.31876 -2.57775,0.56576 -3.88932,0.75567c-0.72303,3.64039 -1.52653,7.24946 -2.5662,10.75073c-0.21091,1.05408 -0.62298,2.5263 -0.10403,3.47236c0.49209,0.89708 1.91146,1.2965 1.91146,1.2965c0,0 2.23933,0.24379 2.23933,1.50798c0,0.69508 -0.60832,1.30656 -1.44868,1.42361c-0.32131,0.04475 -3.55574,0.3423 -4.75803,-1.11616c-1.3723,-1.66469 -0.68767,-5.22343 -0.29327,-7.19615c0.97019,-3.19851 1.7285,-6.49811 2.40267,-9.83258c-0.31278,0.02856 -1.27596,0.05445 -1.58924,0.07791c-1.59855,3.01971 -7.11146,8.90322 -13.01299,13.1175c-5.03764,3.59737 -6.00094,3.76611 -10.05094,5.81221c-0.77208,0.39007 -2.02169,-0.16332 -2.29593,-1.3974c-0.27425,-1.23408 0.39166,-1.67238 1.30989,-2.20842c0.91823,-0.53604 6.85153,-2.45488 7.50363,-2.93673c3.17132,-2.3434 -0.95924,-7.20596 -1.59376,-9.63799c-0.96241,-3.68879 -0.32588,-6.7349 1.25919,-9.90504c0,0 1.45021,-1.38354 2.58093,-0.81817c1.13072,0.56536 1.32381,2.32811 1.32381,2.32811c-1.26183,2.52367 -3.52304,4.73392 -2.73206,7.70329c0.60457,2.26958 2.32699,5.11494 2.76365,7.52826c3.53136,-2.96938 8.03744,-5.80677 10.56329,-9.42873c-0.99825,0.03081 -1.99447,0.53064 -2.98464,0.53064c0,0 -1.58923,-0.65009 -1.58923,-1.91427c0,-1.26418 1.75176,-1.58923 1.75176,-1.58923c1.56136,0 6.77147,0.20798 7.29973,0.15213c0.84825,-4.44251 1.11884,-8.91636 2.08539,-13.26688c0,0 0.76181,-1.88418 1.99589,-1.60994c1.23408,0.27425 1.28488,2.32094 1.28488,2.32094c-0.90322,4.06345 -1.95946,8.05935 -2.74596,12.20113c0.92623,-0.15521 1.84461,-0.34331 2.7513,-0.57054c1.72826,-0.43314 5.39345,-1.23779 7.94516,-2.22182c1.8491,-0.71309 2.91704,-1.66771 3.18526,-1.9341c2.18761,-2.17263 6.00727,-2.93338 8.37194,-0.70748c0.58889,0.55433 1.84851,2.46947 2.0117,4.63324c0.14515,1.92479 -0.68866,6.89955 0.34227,8.9009c0.97293,1.88877 3.80576,0.86799 4.18816,0.66918c3.11315,-1.61848 7.96411,-12.70249 8.42399,-12.70249c0.63453,0 1.1599,0.4675 1.25041,1.07685c0,0 0.0469,2.29504 0.10008,5.03829c0.05217,2.69083 -0.11716,5.69913 -0.09126,7.50947c0.26935,-0.58646 1.73432,-5.32695 2.67015,-7.18405c2.22267,-4.41074 8.48314,-7.9681 12.55009,-4.17401c0,0 1.32589,2.19001 0.16392,2.688zM326.04104,170.19674c-0.5463,0.55162 -1.05664,1.2272 -1.52444,1.98656c-0.05854,0.32566 -0.21592,0.54272 -0.3997,0.68738c-1.71982,3.12985 -2.76714,7.34845 -2.75445,10.29423c-0.03334,1.9733 0.5271,2.53134 1.37621,2.36626c0.78311,-0.15225 1.81176,-0.91958 2.84661,-1.75907c2.86135,-2.32118 5.26843,-7.06176 5.66009,-10.70289c0,0 0.47581,-3.39183 -0.31675,-4.26103c-1.08882,-1.19408 -3.66296,0.15203 -4.88756,1.38857z" fill="#000000" stroke-width="0.5"/><path d="M394.50932,144.00587c0.1502,0.73733 -5.68237,2.02821 -12.35513,3.38748c-6.67276,1.35926 -12.20385,1.86346 -12.35405,1.12613c-0.1502,-0.73733 5.13738,-2.43694 11.81015,-3.79622c6.67276,-1.35926 12.74883,-1.45472 12.89903,-0.71739z" fill="#ffffff" stroke-width="0"/><path d="M329.84098,144.16449c0,1.05345 -2.03332,1.90744 -4.54152,1.90744c-2.50822,0 -4.54151,-0.85399 -4.54151,-1.90744c0,-1.05345 2.03331,-1.90744 4.54151,-1.90744c2.50822,0 4.54152,0.85399 4.54152,1.90744z" fill="#ffffff" stroke-width="0"/><path d="M261.82279,142.79029c-0.3182,0.68187 -3.26629,-0.02075 -6.58471,-1.56935c-3.31843,-1.5486 -5.7506,-3.35676 -5.43239,-4.03863c0.3182,-0.68187 3.26629,0.02076 6.58471,1.56936c3.31843,1.5486 5.7506,3.35675 5.43238,4.03862z" fill="#ffffff" stroke-width="0"/><path d="M247.63146,166.46585c0.14152,0.73903 -2.18012,1.80468 -5.18554,2.38019c-3.00541,0.57551 -5.5565,0.44293 -5.69802,-0.2961c-0.14152,-0.73903 2.18012,-1.80468 5.18554,-2.38019c3.00541,-0.57551 5.55651,-0.44293 5.69802,0.2961z" fill="#ffffff" stroke-width="0"/><path d="M416.71444,174.18066c-0.15152,0.89015 -5.37373,0.74379 -11.66414,-0.32692c-6.29041,-1.07072 -11.26698,-2.66031 -11.11547,-3.55046c0.15152,-0.89015 5.37374,-0.74379 11.66416,0.32692c6.29041,1.07072 11.26697,2.66031 11.11546,3.55046z" fill="#ffffff" stroke-width="0"/><path d="M237.19418,192.22714c0.28034,0.83315 -1.50138,1.90107 -3.97959,2.3853c-2.47821,0.48422 -4.71444,0.20136 -4.99479,-0.63179c-0.28034,-0.83315 1.50138,-1.90107 3.97959,-2.38529c2.47821,-0.48422 4.71444,-0.20136 4.99479,0.63178z" fill="#ffffff" stroke-width="0"/><path d="M396.63583,199.85567c-0.4214,0.53015 -1.47928,0.39056 -2.36285,-0.31176c-0.88357,-0.70232 -1.25823,-1.70142 -0.83683,-2.23157c0.4214,-0.53015 1.47927,-0.39056 2.36284,0.31176c0.88357,0.70232 1.25824,1.70143 0.83684,2.23157z" fill="#ffffff" stroke-width="0"/></g></g></g></svg>